<svg xmlns="http://www.w3.org/2000/svg" width="760" height="430" viewBox="0 0 760 430" font-family="sans-serif">
<rect width="760" height="430" fill="white"/>
<text x="380.0" y="26.0" font-size="13" fill="#111" text-anchor="middle" font-weight="bold">Hand angles vs value n (0&#8211;30): two sawtooths, and their clockwise difference</text>
<line x1="58" y1="378.0" x2="610" y2="378.0" stroke="#eee"/>
<text x="50.0" y="381.0" font-size="10" fill="#555" text-anchor="end" font-weight="normal">0&#176;</text>
<line x1="58" y1="323.7" x2="610" y2="323.7" stroke="#eee"/>
<text x="50.0" y="326.7" font-size="10" fill="#555" text-anchor="end" font-weight="normal">60&#176;</text>
<line x1="58" y1="269.3" x2="610" y2="269.3" stroke="#eee"/>
<text x="50.0" y="272.3" font-size="10" fill="#555" text-anchor="end" font-weight="normal">120&#176;</text>
<line x1="58" y1="215.0" x2="610" y2="215.0" stroke="#eee"/>
<text x="50.0" y="218.0" font-size="10" fill="#555" text-anchor="end" font-weight="normal">180&#176;</text>
<line x1="58" y1="160.7" x2="610" y2="160.7" stroke="#eee"/>
<text x="50.0" y="163.7" font-size="10" fill="#555" text-anchor="end" font-weight="normal">240&#176;</text>
<line x1="58" y1="106.3" x2="610" y2="106.3" stroke="#eee"/>
<text x="50.0" y="109.3" font-size="10" fill="#555" text-anchor="end" font-weight="normal">300&#176;</text>
<line x1="58" y1="52.0" x2="610" y2="52.0" stroke="#eee"/>
<text x="50.0" y="55.0" font-size="10" fill="#555" text-anchor="end" font-weight="normal">360&#176;</text>
<line x1="58.0" y1="52" x2="58.0" y2="378" stroke="#f3f3f3"/>
<text x="58.0" y="394.0" font-size="10" fill="#555" text-anchor="middle" font-weight="normal">0</text>
<line x1="150.0" y1="52" x2="150.0" y2="378" stroke="#f3f3f3"/>
<text x="150.0" y="394.0" font-size="10" fill="#555" text-anchor="middle" font-weight="normal">5</text>
<line x1="242.0" y1="52" x2="242.0" y2="378" stroke="#f3f3f3"/>
<text x="242.0" y="394.0" font-size="10" fill="#555" text-anchor="middle" font-weight="normal">10</text>
<line x1="334.0" y1="52" x2="334.0" y2="378" stroke="#f3f3f3"/>
<text x="334.0" y="394.0" font-size="10" fill="#555" text-anchor="middle" font-weight="normal">15</text>
<line x1="426.0" y1="52" x2="426.0" y2="378" stroke="#f3f3f3"/>
<text x="426.0" y="394.0" font-size="10" fill="#555" text-anchor="middle" font-weight="normal">20</text>
<line x1="518.0" y1="52" x2="518.0" y2="378" stroke="#f3f3f3"/>
<text x="518.0" y="394.0" font-size="10" fill="#555" text-anchor="middle" font-weight="normal">25</text>
<line x1="610.0" y1="52" x2="610.0" y2="378" stroke="#f3f3f3"/>
<text x="610.0" y="394.0" font-size="10" fill="#555" text-anchor="middle" font-weight="normal">30</text>
<rect x="58" y="52" width="552" height="326" fill="none" stroke="#ccc"/>
<text x="380.0" y="418.0" font-size="11" fill="#333" text-anchor="middle" font-weight="normal">value n</text>
<text x="16.0" y="215.0" font-size="11" fill="#333" text-anchor="middle" font-weight="normal">angle</text>
<polyline points="58.0,378.0 76.4,323.7 94.8,269.3 113.2,215.0 131.6,160.7 150.0,106.3" fill="none" stroke="#e80" stroke-width="1.6"/>
<polyline points="168.4,378.0 186.8,323.7 205.2,269.3 223.6,215.0 242.0,160.7 260.4,106.3" fill="none" stroke="#e80" stroke-width="1.6"/>
<polyline points="278.8,378.0 297.2,323.7 315.6,269.3 334.0,215.0 352.4,160.7 370.8,106.3" fill="none" stroke="#e80" stroke-width="1.6"/>
<polyline points="389.2,378.0 407.6,323.7 426.0,269.3 444.4,215.0 462.8,160.7 481.2,106.3" fill="none" stroke="#e80" stroke-width="1.6"/>
<polyline points="499.6,378.0 518.0,323.7 536.4,269.3 554.8,215.0 573.2,160.7 591.6,106.3" fill="none" stroke="#e80" stroke-width="1.6"/>
<circle cx="58.0" cy="378.0" r="2.6" fill="#e80"/>
<circle cx="76.4" cy="323.7" r="2.6" fill="#e80"/>
<circle cx="94.8" cy="269.3" r="2.6" fill="#e80"/>
<circle cx="113.2" cy="215.0" r="2.6" fill="#e80"/>
<circle cx="131.6" cy="160.7" r="2.6" fill="#e80"/>
<circle cx="150.0" cy="106.3" r="2.6" fill="#e80"/>
<circle cx="168.4" cy="378.0" r="2.6" fill="#e80"/>
<circle cx="186.8" cy="323.7" r="2.6" fill="#e80"/>
<circle cx="205.2" cy="269.3" r="2.6" fill="#e80"/>
<circle cx="223.6" cy="215.0" r="2.6" fill="#e80"/>
<circle cx="242.0" cy="160.7" r="2.6" fill="#e80"/>
<circle cx="260.4" cy="106.3" r="2.6" fill="#e80"/>
<circle cx="278.8" cy="378.0" r="2.6" fill="#e80"/>
<circle cx="297.2" cy="323.7" r="2.6" fill="#e80"/>
<circle cx="315.6" cy="269.3" r="2.6" fill="#e80"/>
<circle cx="334.0" cy="215.0" r="2.6" fill="#e80"/>
<circle cx="352.4" cy="160.7" r="2.6" fill="#e80"/>
<circle cx="370.8" cy="106.3" r="2.6" fill="#e80"/>
<circle cx="389.2" cy="378.0" r="2.6" fill="#e80"/>
<circle cx="407.6" cy="323.7" r="2.6" fill="#e80"/>
<circle cx="426.0" cy="269.3" r="2.6" fill="#e80"/>
<circle cx="444.4" cy="215.0" r="2.6" fill="#e80"/>
<circle cx="462.8" cy="160.7" r="2.6" fill="#e80"/>
<circle cx="481.2" cy="106.3" r="2.6" fill="#e80"/>
<circle cx="499.6" cy="378.0" r="2.6" fill="#e80"/>
<circle cx="518.0" cy="323.7" r="2.6" fill="#e80"/>
<circle cx="536.4" cy="269.3" r="2.6" fill="#e80"/>
<circle cx="554.8" cy="215.0" r="2.6" fill="#e80"/>
<circle cx="573.2" cy="160.7" r="2.6" fill="#e80"/>
<circle cx="591.6" cy="106.3" r="2.6" fill="#e80"/>
<circle cx="610.0" cy="378.0" r="2.6" fill="#e80"/>
<text x="622.0" y="199.0" font-size="11" fill="#e80" text-anchor="start" font-weight="normal">6-hand = 60&#183;(n mod 6)</text>
<polyline points="58.0,378.0 76.4,312.8 94.8,247.6 113.2,182.4 131.6,117.2" fill="none" stroke="#27e" stroke-width="1.6"/>
<polyline points="150.0,378.0 168.4,312.8 186.8,247.6 205.2,182.4 223.6,117.2" fill="none" stroke="#27e" stroke-width="1.6"/>
<polyline points="242.0,378.0 260.4,312.8 278.8,247.6 297.2,182.4 315.6,117.2" fill="none" stroke="#27e" stroke-width="1.6"/>
<polyline points="334.0,378.0 352.4,312.8 370.8,247.6 389.2,182.4 407.6,117.2" fill="none" stroke="#27e" stroke-width="1.6"/>
<polyline points="426.0,378.0 444.4,312.8 462.8,247.6 481.2,182.4 499.6,117.2" fill="none" stroke="#27e" stroke-width="1.6"/>
<polyline points="518.0,378.0 536.4,312.8 554.8,247.6 573.2,182.4 591.6,117.2" fill="none" stroke="#27e" stroke-width="1.6"/>
<circle cx="58.0" cy="378.0" r="2.6" fill="#27e"/>
<circle cx="76.4" cy="312.8" r="2.6" fill="#27e"/>
<circle cx="94.8" cy="247.6" r="2.6" fill="#27e"/>
<circle cx="113.2" cy="182.4" r="2.6" fill="#27e"/>
<circle cx="131.6" cy="117.2" r="2.6" fill="#27e"/>
<circle cx="150.0" cy="378.0" r="2.6" fill="#27e"/>
<circle cx="168.4" cy="312.8" r="2.6" fill="#27e"/>
<circle cx="186.8" cy="247.6" r="2.6" fill="#27e"/>
<circle cx="205.2" cy="182.4" r="2.6" fill="#27e"/>
<circle cx="223.6" cy="117.2" r="2.6" fill="#27e"/>
<circle cx="242.0" cy="378.0" r="2.6" fill="#27e"/>
<circle cx="260.4" cy="312.8" r="2.6" fill="#27e"/>
<circle cx="278.8" cy="247.6" r="2.6" fill="#27e"/>
<circle cx="297.2" cy="182.4" r="2.6" fill="#27e"/>
<circle cx="315.6" cy="117.2" r="2.6" fill="#27e"/>
<circle cx="334.0" cy="378.0" r="2.6" fill="#27e"/>
<circle cx="352.4" cy="312.8" r="2.6" fill="#27e"/>
<circle cx="370.8" cy="247.6" r="2.6" fill="#27e"/>
<circle cx="389.2" cy="182.4" r="2.6" fill="#27e"/>
<circle cx="407.6" cy="117.2" r="2.6" fill="#27e"/>
<circle cx="426.0" cy="378.0" r="2.6" fill="#27e"/>
<circle cx="444.4" cy="312.8" r="2.6" fill="#27e"/>
<circle cx="462.8" cy="247.6" r="2.6" fill="#27e"/>
<circle cx="481.2" cy="182.4" r="2.6" fill="#27e"/>
<circle cx="499.6" cy="117.2" r="2.6" fill="#27e"/>
<circle cx="518.0" cy="378.0" r="2.6" fill="#27e"/>
<circle cx="536.4" cy="312.8" r="2.6" fill="#27e"/>
<circle cx="554.8" cy="247.6" r="2.6" fill="#27e"/>
<circle cx="573.2" cy="182.4" r="2.6" fill="#27e"/>
<circle cx="591.6" cy="117.2" r="2.6" fill="#27e"/>
<circle cx="610.0" cy="378.0" r="2.6" fill="#27e"/>
<text x="622.0" y="215.0" font-size="11" fill="#27e" text-anchor="start" font-weight="normal">5-hand = 72&#183;(n mod 5)</text>
<polyline points="58.0,378.0 76.4,367.1 94.8,356.3 113.2,345.4 131.6,334.5 150.0,323.7 168.4,312.8 186.8,301.9 205.2,291.1 223.6,280.2 242.0,269.3 260.4,258.5 278.8,247.6 297.2,236.7 315.6,225.9 334.0,215.0 352.4,204.1 370.8,193.3 389.2,182.4 407.6,171.5 426.0,160.7 444.4,149.8 462.8,138.9 481.2,128.1 499.6,117.2 518.0,106.3 536.4,95.5 554.8,84.6 573.2,73.7 591.6,62.9" fill="none" stroke="#1a7" stroke-width="1.6"/>
<circle cx="58.0" cy="378.0" r="2.6" fill="#1a7"/>
<circle cx="76.4" cy="367.1" r="2.6" fill="#1a7"/>
<circle cx="94.8" cy="356.3" r="2.6" fill="#1a7"/>
<circle cx="113.2" cy="345.4" r="2.6" fill="#1a7"/>
<circle cx="131.6" cy="334.5" r="2.6" fill="#1a7"/>
<circle cx="150.0" cy="323.7" r="2.6" fill="#1a7"/>
<circle cx="168.4" cy="312.8" r="2.6" fill="#1a7"/>
<circle cx="186.8" cy="301.9" r="2.6" fill="#1a7"/>
<circle cx="205.2" cy="291.1" r="2.6" fill="#1a7"/>
<circle cx="223.6" cy="280.2" r="2.6" fill="#1a7"/>
<circle cx="242.0" cy="269.3" r="2.6" fill="#1a7"/>
<circle cx="260.4" cy="258.5" r="2.6" fill="#1a7"/>
<circle cx="278.8" cy="247.6" r="2.6" fill="#1a7"/>
<circle cx="297.2" cy="236.7" r="2.6" fill="#1a7"/>
<circle cx="315.6" cy="225.9" r="2.6" fill="#1a7"/>
<circle cx="334.0" cy="215.0" r="2.6" fill="#1a7"/>
<circle cx="352.4" cy="204.1" r="2.6" fill="#1a7"/>
<circle cx="370.8" cy="193.3" r="2.6" fill="#1a7"/>
<circle cx="389.2" cy="182.4" r="2.6" fill="#1a7"/>
<circle cx="407.6" cy="171.5" r="2.6" fill="#1a7"/>
<circle cx="426.0" cy="160.7" r="2.6" fill="#1a7"/>
<circle cx="444.4" cy="149.8" r="2.6" fill="#1a7"/>
<circle cx="462.8" cy="138.9" r="2.6" fill="#1a7"/>
<circle cx="481.2" cy="128.1" r="2.6" fill="#1a7"/>
<circle cx="499.6" cy="117.2" r="2.6" fill="#1a7"/>
<circle cx="518.0" cy="106.3" r="2.6" fill="#1a7"/>
<circle cx="536.4" cy="95.5" r="2.6" fill="#1a7"/>
<circle cx="554.8" cy="84.6" r="2.6" fill="#1a7"/>
<circle cx="573.2" cy="73.7" r="2.6" fill="#1a7"/>
<circle cx="591.6" cy="62.9" r="2.6" fill="#1a7"/>
<circle cx="610.0" cy="378.0" r="2.6" fill="#1a7"/>
<text x="622.0" y="231.0" font-size="11" fill="#1a7" text-anchor="start" font-weight="normal">gap (6&#8594;5) = 12&#183;(n mod 30)</text>
</svg>